<?xml version="1.0" encoding="UTF-8"?>
<svg id="Layer_2" data-name="Layer 2" xmlns="http://www.w3.org/2000/svg" viewBox="0 0 74.73 109.89">
  <defs>
    <style>
      .cls-1 {
        fill: #58595b;
      }

      .cls-2 {
        fill: #d1d3d4;
      }

      .cls-3 {
        fill: #010101;
      }

      .cls-4 {
        fill: #231f20;
      }

      .cls-5 {
        fill: #f3a985;
      }

      .cls-6, .cls-7 {
        fill: #fff;
      }

      .cls-8 {
        fill: none;
        stroke: #231f20;
        stroke-width: .5px;
      }

      .cls-8, .cls-7 {
        stroke-miterlimit: 10;
      }

      .cls-9 {
        fill: #808285;
      }

      .cls-10 {
        fill: #695523;
      }

      .cls-7 {
        stroke: #d1d3d4;
        stroke-width: .25px;
      }

      .cls-11 {
        opacity: .25;
      }

      .cls-12 {
        fill: #ed6723;
      }

      .cls-13 {
        fill: #d4af79;
      }

      .cls-14 {
        fill: #c6964d;
      }

      .cls-15 {
        fill: #896f33;
      }
    </style>
  </defs>
  <g id="All_Art" data-name="All Art">
    <g class="cls-11">
      <rect class="cls-2" y="88.84" width="60.7" height="21.04" rx="3.58" ry="3.58"/>
    </g>
    <g>
      <g>
        <path class="cls-3" d="M27.16,105.78c-1.84,0-6.74,1-6.37,2.91h6.61s1-.6,1-.6v.6s2.54,0,2.54,0v-2.91s-1.94,0-3.78,0Z"/>
        <path class="cls-3" d="M39.53,105.78c1.84,0,6.74,1,6.37,2.91h-6.61s-1-.6-1-.6v.6h-2.54v-2.91s1.94,0,3.78,0Z"/>
        <g>
          <path class="cls-10" d="M23.73,61.03c0,13.42,3.36,44.88,3.36,44.88h3.82s0-46.13,0-46.13"/>
          <path class="cls-10" d="M42.89,61.03c0,13.42-3.36,44.92-3.36,44.92h-3.82v-46.18"/>
          <path class="cls-10" d="M23.71,51.36v12.53s7.19.07,7.19.07c0-.02,0-.04,0-.07,0-1.19,1.07-2.15,2.4-2.15s2.4.96,2.4,2.15c0,.04-.01.07-.01.11l7.2.07v-12.71s-19.17,0-19.17,0Z"/>
          <path class="cls-15" d="M33.29,18.25c-8.45,0-10.8,2.05-10.8,8.4l.65,29.2h20.31s.65-29.2.65-29.2c0-4.64-3.4-8.4-10.8-8.4Z"/>
          <rect class="cls-10" x="29.6" y="49.69" width="7.14" height="10.61"/>
          <rect class="cls-4" x="29.6" y="49.69" width="7.14" height="2.86"/>
          <rect class="cls-13" x="31.55" y="49.51" width="4.52" height="3.11"/>
          <rect class="cls-6" x="29.6" y="17.65" width="8.55" height="32.04"/>
          <g>
            <polygon class="cls-1" points="35.47 23.65 33.26 23.65 32.65 20.22 36.08 20.22 35.47 23.65"/>
            <polyline class="cls-1" points="35.14 22.96 36.98 47.85 34.12 50.91 31.06 47.85 34.12 23.16"/>
          </g>
          <path class="cls-5" d="M35.83,14.62v4.24c0,1.19-2.47,1.37-2.47,1.37,0,0-2.47-.19-2.47-1.37,0-.02,0-.04,0-.07v-4.29"/>
          <path class="cls-5" d="M27.97,10.56c0,3.56,2.88,6.44,6.44,6.44h0c3.56,0,6.44-2.88,6.44-6.44v-4.12c0-3.56-2.88-6.44-6.44-6.44h0c-3.56,0-6.44,2.88-6.44,6.44v4.12Z"/>
          <path class="cls-9" d="M28.08,11.61c.5,3.06,3.14,5.39,6.34,5.39,3.56,0,6.44-2.88,6.44-6.44h-9.01s-1.09,6.01-2.75,1.16l-.38-3.95c-.35-3.04-.94-.58-.65,3.84ZM34.06,11.91h4.41v1.47h-4.41v-1.47Z"/>
        </g>
      </g>
      <path class="cls-15" d="M25.9,20.85l-1.98.14s-9.32,13.97-10.87,18.77.71,20.75.71,20.75l2.4-.14.71-19.76,9.03-11.15"/>
      <g>
        <rect class="cls-13" x="3.48" y="64.38" width="22.4" height="18.52"/>
        <rect class="cls-14" x="3.48" y="66.85" width="22.4" height="18.52"/>
        <path class="cls-8" d="M11.65,65.74v-2.41h0c0-.97.79-1.76,1.76-1.76h3.81c.97,0,1.76.79,1.76,1.76h0v2.41"/>
      </g>
      <path class="cls-5" d="M16.16,60.37l-2.4.14s.28,2.82,1.69,2.96.71-3.11.71-3.11Z"/>
      <polyline class="cls-15" points="41.99 21.42 54.7 36.52 52.16 39.77 41.43 30.31"/>
      <path class="cls-15" d="M59.22,20.71l-8.33,17.22s1.27,3.67,3.53,1.41c2.26-2.26,6.49-18.07,6.49-18.07l-1.69-.56Z"/>
      <rect class="cls-7" x="52.86" y="20.85" width="21.74" height="32.89"/>
      <rect class="cls-12" x="62.42" y="27.16" width="3.76" height="15.43"/>
      <rect class="cls-12" x="62.42" y="27.16" width="3.76" height="15.43" transform="translate(99.17 -29.43) rotate(90)"/>
      <path class="cls-5" d="M61.9,20.71s.85-1.69,3.11-1.69,2.54,1.98,2.54,1.98c0,0-.56,1.98-2.12,1.98s-3.53-2.26-3.53-2.26Z"/>
      <polyline class="cls-9" points="30.98 8.61 30.98 3.63 27.79 3.63 27.79 8.98"/>
    </g>
  </g>
</svg>