<?xml version="1.0" encoding="UTF-8"?>
<svg id="Layer_2" data-name="Layer 2" xmlns="http://www.w3.org/2000/svg" viewBox="0 0 230.72 110.33">
  <defs>
    <style>
      .cls-1 {
        fill: #bec0c2;
      }

      .cls-2 {
        fill: #58595b;
      }

      .cls-3 {
        fill: #d1d3d4;
      }

      .cls-4 {
        fill: #010101;
      }

      .cls-5 {
        stroke: #f9bd97;
      }

      .cls-5, .cls-6, .cls-7, .cls-8, .cls-9, .cls-10, .cls-11 {
        stroke-miterlimit: 10;
      }

      .cls-5, .cls-6, .cls-7, .cls-8, .cls-9, .cls-11, .cls-12 {
        fill: none;
      }

      .cls-5, .cls-10 {
        stroke-width: .45px;
      }

      .cls-6 {
        stroke: #fbd4ba;
      }

      .cls-6, .cls-11 {
        stroke-width: .5px;
      }

      .cls-7 {
        stroke: #ed6723;
        stroke-width: .68px;
      }

      .cls-13 {
        fill: #231f20;
      }

      .cls-8, .cls-9 {
        stroke-width: .91px;
      }

      .cls-8, .cls-10 {
        stroke: #d1d3d4;
      }

      .cls-14 {
        fill: #f3a985;
      }

      .cls-15 {
        fill: #fbd4ba;
      }

      .cls-16 {
        fill: #c6c8ca;
      }

      .cls-9 {
        stroke: #fff;
      }

      .cls-17, .cls-10 {
        fill: #fff;
      }

      .cls-18 {
        fill: #f6c1a4;
      }

      .cls-19 {
        fill: #808285;
      }

      .cls-11 {
        stroke: #b14c15;
      }

      .cls-20 {
        fill: #f9bd97;
      }

      .cls-21 {
        fill: #ed6723;
      }

      .cls-12 {
        stroke: #808285;
        stroke-linejoin: round;
        stroke-width: .23px;
      }

      .cls-22 {
        fill: #e6e7e8;
      }

      .cls-23 {
        fill: #b09265;
      }

      .cls-24 {
        fill: #dcc8a0;
      }

      .cls-25 {
        fill: #d4af79;
      }

      .cls-26 {
        fill: #896f33;
      }
    </style>
  </defs>
  <g id="All_Art" data-name="All Art">
    <g>
      <g>
        <g>
          <circle class="cls-13" cx="98.64" cy="107.08" r="2.14"/>
          <path class="cls-19" d="M100.65,106.35c.63,0,1.15-.51,1.15-1.15v-7.47c0-.63-.51-1.15-1.15-1.15s-1.15.51-1.15,1.15v7.47c0,.63.51,1.15,1.15,1.15Z"/>
          <circle class="cls-13" cx="2.14" cy="107.08" r="2.14"/>
          <path class="cls-19" d="M4.15,106.35c.63,0,1.15-.51,1.15-1.15v-7.47c0-.63-.51-1.15-1.15-1.15s-1.15.51-1.15,1.15v7.47c0,.63.51,1.15,1.15,1.15Z"/>
          <rect class="cls-26" x="1.32" y="99.1" width="101.69" height="4.42" transform="translate(104.33 202.62) rotate(-180)"/>
          <rect class="cls-25" x="1.32" y="96.15" width="101.69" height="4.42" transform="translate(104.33 196.72) rotate(-180)"/>
          <rect class="cls-26" x="1.32" y="86.94" width="101.69" height="4.42" transform="translate(104.33 178.3) rotate(-180)"/>
          <rect class="cls-25" x="1.32" y="83.99" width="101.69" height="4.42" transform="translate(104.33 172.4) rotate(-180)"/>
          <rect class="cls-26" x="69.48" y="83.25" width="19.53" height="18.79" transform="translate(158.49 185.3) rotate(-180)"/>
          <rect class="cls-25" x="69.48" y="79.39" width="19.53" height="18.79" transform="translate(158.49 177.57) rotate(-180)"/>
          <rect class="cls-26" x="12.57" y="83.25" width="19.53" height="18.79" transform="translate(44.67 185.3) rotate(-180)"/>
          <rect class="cls-25" x="12.57" y="79.39" width="19.53" height="18.79" transform="translate(44.67 177.57) rotate(-180)"/>
          <path class="cls-19" d="M1.51,43.58v14.83c0-.5,43.39-.04,43.39-.04,2.19.02,2.94-1.41,1.66-3.19l-8.87-12.34c-1.28-1.78-4.12-3.24-6.31-3.24H5.49c-2.19,0-3.98,1.79-3.98,3.99ZM27.49,43.36h4.83c.47,0,.92.22,1.2.6l5.65,7.53c.5.67.36,1.61-.3,2.11-.27.2-.59.3-.9.3-.46,0-.91-.21-1.2-.6l-5.19-6.92h-4.08v-3.01ZM14.26,43.36h10.22v3.01h-10.22v-3.01ZM4.85,44.87c0-.83.67-1.51,1.51-1.51h4.89v3.01h-4.89c-.83,0-1.51-.67-1.51-1.51Z"/>
          <path class="cls-19" d="M98.35,19.72l-20.48,15.82c-1.73,1.34-3.09,4.23-3.02,6.42l.53,15.19c.08,2.19,1.55,2.87,3.27,1.51,0,0,34.06-26.88,34.36-26.49l-9.07-11.74c-1.34-1.73-3.86-2.06-5.59-.72Z"/>
          <g>
            <path class="cls-19" d="M32.84,58.93c1.1-.2,2.92-.36,4.04-.36h34.99c1.12,0,2.78-.53,3.69-1.19l26.91-19.36c.91-.65,1.65-.27,1.65.85v26.88c0,1.12-.74,2.57-1.65,3.22l-26.91,19.36c-.91.65-2.57,1.19-3.69,1.19h-34.99c-1.12,0-2.94.16-4.04.36l-29.15,5.18c-1.1.2-2-.56-2-1.68v-26.88c0-1.12.9-2.19,2-2.39l29.15-5.18Z"/>
            <path class="cls-22" d="M32.84,49.71c1.1-.2,2.92-.36,4.04-.36h34.99c1.12,0,2.78-.53,3.69-1.19l26.91-19.36c.91-.65,1.65-.27,1.65.85v26.88c0,1.12-.74,2.57-1.65,3.22l-26.91,19.36c-.91.65-2.57,1.19-3.69,1.19h-34.99c-1.12,0-2.94.16-4.04.36l-29.15,5.18c-1.1.2-2-.56-2-1.68v-26.88c0-1.12.9-2.19,2-2.39l29.15-5.18Z"/>
            <polyline class="cls-1" points="71.99 66.85 90.32 56.88 85.14 50.15 65.5 55.72"/>
            <path class="cls-17" d="M89.14,57.54h0c3.69-1.7,6.72-6.11,6.72-9.8v-15.79c0-3.69-3.02-5.33-6.72-3.64h0c-3.69,1.7-6.72,6.11-6.72,9.8v15.79c0,3.69,3.02,5.33,6.72,3.64Z"/>
          </g>
          <path class="cls-3" d="M84.25,45.83c3.91,4.92-.34,9.22-3.23,11.52l-11.99,9-8.2-10.31,11.78-9.27c3.73-2.97,8.65-4.7,11.64-.94Z"/>
          <path class="cls-18" d="M83.24,41.86l-.91,3.29s-.43,1.11-.44,1.13c-.25.91-6.19,2.01-6.19,2.01,0,0,2.57-3.22,3.26-4.01l.9-3.25"/>
          <path class="cls-18" d="M77.23,36.95c-.75,2.73.85,5.56,3.58,6.31h0c2.73.75,5.56-.85,6.31-3.58l.87-3.16c.75-2.73-.85-5.56-3.58-6.31h0c-2.73-.75-5.56.85-6.31,3.58l-.87,3.16Z"/>
          <path class="cls-13" d="M82.81,37.69l.82.28.77-3.07s2.04.26,1.53,2.3.77,3.32.77,3.32l.15.15c.1-.16.21-.31.3-.48l.61-1.83.63-2.28c.75-2.73-.85-5.56-3.58-6.31-2.73-.75-5.56.85-6.31,3.58l4.89,1.28-.57,3.04Z"/>
          <polygon class="cls-21" points="5.8 53.63 37.43 46.9 66.66 48.99 71.99 66.85 71.99 82.86 5.8 82.86 5.8 53.63"/>
          <path class="cls-17" d="M1.51,77.27v14.83c0-.5,43.39-.04,43.39-.04,2.19.02,2.94-1.41,1.66-3.19l-8.87-12.34c-1.28-1.78-4.12-3.24-6.31-3.24H5.49c-2.19,0-3.98,1.79-3.98,3.99ZM27.49,77.05h4.83c.47,0,.92.22,1.2.6l5.65,7.53c.5.67.36,1.61-.3,2.11-.27.2-.59.3-.9.3-.46,0-.91-.21-1.2-.6l-5.19-6.92h-4.08v-3.01ZM14.26,77.05h10.22v3.01h-10.22v-3.01ZM4.85,78.56c0-.83.67-1.51,1.51-1.51h4.89v3.01h-4.89c-.83,0-1.51-.67-1.51-1.51Z"/>
          <path class="cls-17" d="M98.35,53.41l-20.48,15.82c-1.73,1.34-3.09,4.23-3.02,6.42l.53,15.19c.08,2.19,1.55,2.87,3.27,1.51,0,0,34.06-26.88,34.36-26.49l-9.07-11.74c-1.34-1.73-3.86-2.06-5.59-.72ZM85.09,72.22l-3.23,2.49.12,8.65c0,.49-.22.93-.58,1.21-.25.19-.56.31-.9.31-.83.01-1.51-.65-1.53-1.48l-.13-9.41c0-.47.21-.92.58-1.21l3.82-2.95,1.84,2.38ZM95.56,64.13l-8.09,6.25-1.84-2.38,8.09-6.25,1.84,2.38ZM101.81,59.3l-3.87,2.99-1.84-2.38,3.87-2.99c.66-.51,1.6-.39,2.11.27.51.66.39,1.6-.27,2.11Z"/>
        </g>
        <path class="cls-18" d="M82.51,49.68l-12.37,8.35s-12.99.15-15.93.15c-1.08,0-3.56,1.7.15,2.32,3.71.62,16.24.46,16.24.46l14.23-8.35s1.24-.77.31-2.47-2.63-.46-2.63-.46Z"/>
        <path class="cls-3" d="M83.75,48.6c.76-.55,3.09,1.86,1.08,4.02-2.01,2.17-5.72,4.18-5.72,4.18l-2.32-3.71s4.18-2.47,6.96-4.48Z"/>
        <rect class="cls-21" x="13.77" y="49.45" width="4.18" height="9.97" rx=".92" ry=".92" transform="translate(31.71 108.88) rotate(-180)"/>
        <path class="cls-11" d="M20.26,62.91v-3.94c0-1.15-.94-2.09-2.09-2.09h0c-1.15,0-2.09.94-2.09,2.09v4.18"/>
        <polyline class="cls-11" points="67.59 65.46 42.53 65.46 35.11 61.28 15.86 67.08"/>
      </g>
      <g>
        <g>
          <path class="cls-18" d="M175.39,106.24l1.17.37-.02,3.02-8.64.16s1.59-4.35,7-3.42"/>
          <polyline class="cls-23" points="176.63 85.16 176.56 106.62 174.08 106.62 171.97 85.6"/>
          <path class="cls-18" d="M186.89,106.24l1.17.37-.02,3.02-8.64.16s1.59-4.35,7-3.42"/>
          <polyline class="cls-23" points="188.13 85.16 188.06 106.62 185.58 106.62 183.47 85.6"/>
          <path class="cls-15" d="M181.08,35.33c6.92.13,7.6,6.75,7.52,10.82l3.01,42.57-20.93-.27,2.87-42.48c.1-5.25,2.23-10.74,7.53-10.65Z"/>
          <path class="cls-23" d="M187.35,39.33l4.71,11.8s14.3.39,17.54.45c1.19.02,3.89,1.94-.21,2.55-4.1.62-17.89.23-17.89.23l-6.75-11.83s-1.35-.87-.3-2.73c1.05-1.86,2.9-.47,2.9-.47Z"/>
          <path class="cls-15" d="M188.55,51.94s-3.19-7.04-5.37-9.46c-2.18-2.42,1.99-4.98,2.82-4.36,3.03,2.26,5.61,12.03,5.61,12.03l10.22,1.28.26,6.13-10.73-2.04-2.81-3.58Z"/>
          <g>
            <path class="cls-23" d="M183.3,31.3l.21,3.76s-.06,1.31-.06,1.33c.06,1.04-5.75,4.28-5.75,4.28,0,0,1.54-4.27,2-5.33l-.21-3.71"/>
            <path class="cls-23" d="M175.3,28.3c.18,3.12,2.85,5.5,5.97,5.33h0c3.12-.18,5.5-2.85,5.33-5.97l-.2-3.61c-.18-3.12-2.85-5.5-5.97-5.33h0c-3.12.18-5.5,2.85-5.33,5.97l.2,3.61Z"/>
          </g>
          <line class="cls-5" x1="177.39" y1="42.14" x2="178.36" y2="87.12"/>
          <path class="cls-12" d="M209.25,48.62c0,.56-.46,1.02-1.02,1.02h-3.83c-.56,0-1.02.46-1.02,1.02v3.75"/>
          <path class="cls-12" d="M222.54,28.69v-5.88c0-.56-.46-1.02-1.02-1.02h-11.24c-.56,0-1.02.46-1.02,1.02"/>
          <g>
            <circle class="cls-2" cx="212.91" cy="106.89" r="1.91"/>
            <circle class="cls-2" cx="200.48" cy="106.89" r="1.91"/>
            <circle class="cls-2" cx="206.95" cy="108.42" r="1.91"/>
            <line class="cls-8" x1="206.95" y1="23.83" x2="206.95" y2="106.89"/>
            <ellipse class="cls-8" cx="206.95" cy="103.48" rx="6.47" ry="2.04"/>
          </g>
          <g>
            <line class="cls-9" x1="225.35" y1="27.92" x2="225.35" y2="24.09"/>
            <rect class="cls-22" x="219.73" y="27.66" width="10.99" height="20.7" transform="translate(450.45 76.03) rotate(-180)"/>
            <rect class="cls-19" x="221.22" y="34.2" width="7.87" height="12.23" transform="translate(450.32 80.63) rotate(-180)"/>
          </g>
          <line class="cls-8" x1="203.12" y1="23.57" x2="228.16" y2="23.57"/>
          <line class="cls-12" x1="209.25" y1="21.7" x2="209.25" y2="48.62"/>
          <ellipse class="cls-16" cx="225.16" cy="34.05" rx="4.09" ry="1.02"/>
        </g>
        <path class="cls-13" d="M184.97,23.57c2.04-.77,3.07-2.3,5.62-2.3s3.32,2.56,3.32,6.13,4.09,3.58,4.09,3.58c0,0-5.11,3.58-7.67-.51-2.56-4.09-.51-7.41-5.11-5.11"/>
        <path class="cls-13" d="M180.42,18.72c-2.15.12-3.94,1.45-4.79,3.28.46.79,2.45,3.62,7.29,3.62h1.53v3.32h2.05c.07-.42.11-.85.09-1.29l-.2-3.61c-.18-3.12-2.85-5.5-5.97-5.33Z"/>
      </g>
      <g>
        <g>
          <g>
            <g>
              <path class="cls-14" d="M141.01,41.82s-4.91,14.11-7.77,14.72c-2.86.61-4.7-20.44-4.7-20.44l2.45-.82,2.66,16.36,5.32-13.08"/>
              <path class="cls-19" d="M142.24,35.86c-1.32-.42-2.73.32-3.15,1.64l-1.49,4.72,4.74,1.64,1.51-4.78s.02-.05.03-.07c.42-1.32-.32-2.73-1.64-3.15Z"/>
            </g>
            <path class="cls-19" d="M147.03,34.44c-5.12,0-7.47,3.07-7.47,6.87l.45,16.46h14.05s.45-16.46.45-16.46c0-3.79-2.35-6.87-7.47-6.87Z"/>
            <path class="cls-14" d="M140.01,65.67c0,10.98,2.46,40.14,2.46,40.14h2.68s-.06-39.73-.06-39.73"/>
            <path class="cls-4" d="M172.11,90.62l-2.56-.81s-.43,1.36-.83,2.64c-.4,1.28-.49,3.99,1.15,5.26l2.24-7.1Z"/>
            <path class="cls-4" d="M145.3,108.4v-2.68s-1.42,0-2.77,0-3.96.73-4.67,2.68h7.44Z"/>
            <path class="cls-14" d="M145.01,31.37v3.51s0,.04,0,.05c0,.97.91,1.76,2.02,1.76,1.12,0,2.02-.79,2.02-1.76v-3.46"/>
            <path class="cls-23" d="M145.87,20.11s7.99-.46,8.23,11.11l-15.8.8s-1.64-10.95,7.57-11.91Z"/>
            <path class="cls-14" d="M150.59,28.66c.02,2.91-2.33,5.28-5.24,5.3h0c-2.91.02-5.28-2.33-5.3-5.24l-.02-3.37c-.02-2.91,2.33-5.28,5.24-5.3h0c2.91-.02,5.28,2.33,5.3,5.24l.02,3.37Z"/>
            <path class="cls-23" d="M145.28,20.06s-.02,0-.02,0c-.16,0-.32.01-.47.03-.06,0-.13.02-.19.03-.1.01-.2.03-.29.05-.08.01-.15.03-.22.05-.08.02-.16.04-.24.06-.08.02-.16.05-.24.08-.07.02-.13.05-.2.07-.09.03-.17.07-.26.11-.05.02-.09.05-.14.07-1.4.69-2.46,1.98-2.82,3.53,0,0,0,0,0,0-.09.39-.14.8-.14,1.22.04,0,.07,0,.11,0,7.91-.04,8.53-2.34,8.53-2.34l.04,6.39h1.83s.01-.07.01-.1c0-.05.01-.11.02-.16.01-.16.02-.31.02-.47l-.02-3.37c-.02-2.91-2.39-5.25-5.3-5.24Z"/>
          </g>
          <path class="cls-14" d="M152.31,72.9l2.76,9.13s11.56,6.92,14.9,7.86l-1.27,2.56s-13.99-4.97-16.49-8.21c-2.49-3.24-2.21-9.8-2.21-9.8"/>
        </g>
        <path class="cls-2" d="M140,57.77s-1.23,12.32.3,34.8h6.39v-25.81s2.3,13.54,3.58,16.36c.63,1.4,1.02,2.04,1.02,2.04l3.58-6.13.51,1.53s-.87-17.99-1.33-22.79"/>
        <path class="cls-10" d="M155.03,78.28l-3.93,6.95,17.61,7.21s-.9,2.32-1.4,3.87c-.5,1.56,2.46,2.89,3.83.74,1.37-2.16,2.28-7.69,2.28-7.69l-18.4-11.08Z"/>
        <line class="cls-8" x1="154.65" y1="53.22" x2="162.32" y2="53.22"/>
        <path class="cls-8" d="M154.91,44.01v31.82c0,.5.11,1.3.25,1.78l3.05,10.78c.14.48.25,1.28.25,1.78v15.96"/>
        <path class="cls-8" d="M162.5,44.01v31.82c0,.5-.11,1.3-.25,1.78l-3.05,10.78c-.14.48-.25,1.28-.25,1.78v15.96"/>
        <rect class="cls-26" x="151.82" y="42.49" width="12.48" height="3.32"/>
        <g>
          <path class="cls-14" d="M155.41,42.85s6.46,3.86,5.52,9.41c-1.11,6.6-7.11,8.96-7.11,8.96l1.29,1.58s7.36-3.75,8.5-10.5c1.38-8.14-6.32-12.39-6.32-12.39"/>
          <path class="cls-19" d="M150.57,37.49c-.72,1.19-.33,2.73.85,3.45l4.24,2.56,2.71-4.22-4.29-2.59s-.04-.03-.06-.05c-1.19-.72-2.73-.33-3.45.85Z"/>
        </g>
        <rect class="cls-26" x="156.91" y="104.59" width="4.09" height="5.11"/>
      </g>
      <g>
        <g>
          <g>
            <path class="cls-24" d="M117.91,99.45c-.89-2.38-.6-4.54.45-6.8,1.05-2.26.82-5.5.04-8.47l-4.64,1.02c.92,2.94,1.77,5.5.83,7.8-.94,2.3-.62,5.15.38,7.49,1,2.34-1.61,6.11-1.61,6.11l2.92.05s2.52-4.83,1.63-7.21Z"/>
            <path class="cls-10" d="M116.76,105.63l.16,2.65-7.55.45s-.24-1.71,1.87-2.11c1.96-.37,5.52-1,5.52-1Z"/>
            <path class="cls-24" d="M104.39,70.89c0,11.04,2.47,36.93,2.47,36.93h2.81v-37.96"/>
            <path class="cls-10" d="M109.27,105.76v2.65h-7.56s-.13-1.72,1.99-1.99c1.97-.25,5.57-.66,5.57-.66Z"/>
            <path class="cls-13" d="M117.85,60.49c.38,0,.68.31.68.68v11.38c0,.38-.31.69-.68.69l-3.93.04c-.38,0-.68,0-.68-.03v-.02c0-.98-.79-1.77-1.77-1.77-.98,0-1.77.79-1.77,1.77v.03s-.3.06-.68.07l-3.94.04c-.38,0-.68-.3-.68-.68v-11.53c0-.38.31-.68.68-.68h12.76Z"/>
            <rect class="cls-24" x="109.18" y="32.02" width="4.5" height="6.13"/>
            <path class="cls-24" d="M116.43,29.6c0,2.93-2.37,5.3-5.3,5.3h0c-2.93,0-5.3-2.37-5.3-5.3v-3.38c0-2.93,2.37-5.3,5.3-5.3h0c2.93,0,5.3,2.37,5.3,5.3v3.38Z"/>
            <path class="cls-19" d="M115.86,23.95s-.47,1.04-1.41,1.04h-.94s-2.45.56-1.13,3.01l.75.19v1.88h.94v-1.88s.75-1.69,1.69-.75c0,0,.75.76.28,2.35-.47,1.59.19,1.51.19,1.51,0,0,.66-1.04.66-3.67s-1.04-3.67-1.04-3.67Z"/>
            <path class="cls-19" d="M113.18,29.87c.09,2.07-2.26,1.41-2.26,1.41,0,0-1.46-1.51-2.78-1.41-1.03.07-1.81.79-2.11,1.11.44,1.61,1.59,2.91,3.12,3.53.2.02.37.07.59.07,3.67,0,4.33-1.04,4.33-4.71l-.66.09-.24-.09Z"/>
            <path class="cls-24" d="M107.31,36.35l-8.94-10.48,14.06-3.07v-2.3s-14.82,2.3-17.12,2.56,1.79,8.94,5.37,12.52l3.58,3.58"/>
            <path class="cls-20" d="M110.63,38.14c-1.68-2.29-7.92-6.64-7.92-6.64l-3.32,3.83,5.87,5.39"/>
            <path class="cls-20" d="M111.47,35.72c5.54,0,8.08,3.09,8.08,6.9l-.48,44.34h-15.19s-.48-44.34-.48-44.34c0-3.81,2.54-6.9,8.08-6.9Z"/>
            <path class="cls-24" d="M108.02,36.23l1.34,5.38,4.45-5.65c-.72-.14-1.48-.24-2.34-.24-1.32,0-2.46.19-3.45.51Z"/>
            <line class="cls-6" x1="109.19" y1="42.14" x2="110.15" y2="87.12"/>
          </g>
          <path class="cls-24" d="M128.94,52.98c-2.09-1.45-3.08-3.39-3.5-5.84-.42-2.45-2.46-4.98-4.8-6.98l-3.23,3.48c2.43,1.89,4.59,3.51,5.13,5.94.54,2.43,2.43,4.59,4.59,5.94,2.16,1.35,2.16,5.94,2.16,5.94l2.43-1.62s-.68-5.4-2.78-6.85Z"/>
          <path class="cls-20" d="M113.6,35.68c2.83.31,8.8,5.18,8.8,5.18l-2.83,4.55-5.81-3.93"/>
        </g>
        <path class="cls-7" d="M112.86.35S101.04,0,101.04,4.63s18.06,5.13,18.34,2.06c.17-1.89-1.71-1.54-7.37-1.54-10.45,0-10.8,8.23-1.89,8.23s6.86-3.09.51-3.09-2.4,5.66.69,6.68"/>
      </g>
    </g>
  </g>
</svg>